<?xml version="1.0" encoding="UTF-8" standalone="no"?>
<!-- Created with Inkscape (http://www.inkscape.org/) -->

<svg
   xmlns:dc="http://purl.org/dc/elements/1.1/"
   xmlns:cc="http://creativecommons.org/ns#"
   xmlns:rdf="http://www.w3.org/1999/02/22-rdf-syntax-ns#"
   xmlns:svg="http://www.w3.org/2000/svg"
   xmlns="http://www.w3.org/2000/svg"
   version="1.1"
   width="226.705"
   height="116.405"
   id="svg2"
   xml:space="preserve"><metadata
     id="metadata8"><rdf:RDF><cc:Work
         rdf:about=""><dc:format>image/svg+xml</dc:format><dc:type
           rdf:resource="http://purl.org/dc/dcmitype/StillImage" /><dc:title></dc:title></cc:Work></rdf:RDF></metadata><defs
     id="defs6"><clipPath
       id="clipPath18"><path
         d="m 0,93.124 181.365,0 L 181.365,0 0,0 0,93.124 z"
         id="path20" /></clipPath><clipPath
       id="clipPath108"><path
         d="m 0,93.124 181.365,0 L 181.365,0 0,0 0,93.124 z"
         id="path110" /></clipPath></defs><g
     transform="matrix(1.25,0,0,-1.25,0,116.405)"
     id="g10"><path
       d="m 0,0 181.364,0 0,93.124 L 0,93.124 0,0 z"
       id="path12"
       style="fill:#349d52;fill-opacity:1;fill-rule:nonzero;stroke:none" /><path
       d="m 144.419,84.119 -108.36,0 0,-30.476 108.36,0 0,30.476 z"
       id="path26"
       style="fill:#858586;fill-opacity:1;fill-rule:nonzero;stroke:none" /><path
       d="m 144.419,57.028 -108.36,0 0,-6.772 108.36,0 0,6.772 z"
       id="path28"
       style="fill:#ffffff;fill-opacity:1;fill-rule:nonzero;stroke:none" /><rect
       width="181.5923"
       height="3.0219595"
       x="-0.27472359"
       y="-53.45612"
       transform="scale(1,-1)"
       id="rect4231"
       style="fill:#ffffff;fill-opacity:1;stroke:#ffffff;stroke-width:0.35999998;stroke-miterlimit:4;stroke-opacity:1;stroke-dasharray:none" /><g
       transform="translate(71.7044,50.2891)"
       id="g58"
       style="fill:#000000;fill-opacity:1;stroke:#000000;stroke-width:0.44;stroke-miterlimit:4;stroke-opacity:1;stroke-dasharray:none"><path
         d="M 0,0 19.843,0"
         id="path60"
         style="fill:#000000;fill-opacity:1;stroke:#000000;stroke-width:0.44;stroke-linecap:butt;stroke-linejoin:miter;stroke-miterlimit:4;stroke-opacity:1;stroke-dasharray:none" /></g><g
       transform="translate(34.1074,41.2607)"
       id="g62"><path
         d="M 0,0 3.903,0"
         id="path64"
         style="fill:none;stroke:#373535;stroke-width:0.2;stroke-linecap:butt;stroke-linejoin:miter;stroke-miterlimit:10;stroke-opacity:1;stroke-dasharray:none" /></g><g
       transform="translate(34.3994,40.2695)"
       id="g66"><path
         d="M 0,0 -1.727,0.997 0,1.994 0,0 z"
         id="path68"
         style="fill:#373535;fill-opacity:1;fill-rule:nonzero;stroke:none" /></g><g
       transform="translate(37.7183,40.2695)"
       id="g70"><path
         d="M 0,0 1.727,0.997 0,1.994 0,0 z"
         id="path72"
         style="fill:#373535;fill-opacity:1;fill-rule:nonzero;stroke:none" /></g><g
       transform="translate(40.8804,41.2607)"
       id="g74"><path
         d="M 0,0 98.717,0"
         id="path76"
         style="fill:none;stroke:#373535;stroke-width:0.2;stroke-linecap:butt;stroke-linejoin:miter;stroke-miterlimit:10;stroke-opacity:1;stroke-dasharray:none" /></g><g
       transform="translate(41.1724,40.2695)"
       id="g78"><path
         d="M 0,0 -1.727,0.997 0,1.994 0,0 z"
         id="path80"
         style="fill:#373535;fill-opacity:1;fill-rule:nonzero;stroke:none" /></g><g
       transform="translate(139.3062,40.2695)"
       id="g82"><path
         d="M 0,0 1.727,0.997 0,1.994 0,0 z"
         id="path84"
         style="fill:#373535;fill-opacity:1;fill-rule:nonzero;stroke:none" /></g><g
       transform="translate(142.4683,41.2607)"
       id="g86"><path
         d="M 0,0 3.867,0"
         id="path88"
         style="fill:none;stroke:#373535;stroke-width:0.2;stroke-linecap:butt;stroke-linejoin:miter;stroke-miterlimit:10;stroke-opacity:1;stroke-dasharray:none" /></g><g
       transform="translate(142.7593,40.2695)"
       id="g90"><path
         d="M 0,0 -1.727,0.997 0,1.994 0,0 z"
         id="path92"
         style="fill:#373535;fill-opacity:1;fill-rule:nonzero;stroke:none" /></g><g
       transform="translate(146.0444,40.2695)"
       id="g94"><path
         d="M 0,0 1.727,0.997 0,1.994 0,0 z"
         id="path96"
         style="fill:#373535;fill-opacity:1;fill-rule:nonzero;stroke:none" /></g><text
       transform="matrix(1,0,0,-1,82.8091,67.2041)"
       id="text98"><tspan
         x="0 3.0780001 6.1560001"
         y="0"
         id="tspan100"
         style="font-size:6px;font-variant:normal;font-weight:normal;font-stretch:normal;writing-mode:lr-tb;fill:#292929;fill-opacity:1;fill-rule:nonzero;stroke:none;font-family:Myriad Pro;-inkscape-font-specification:MyriadPro-Regular">500</tspan><tspan
         x="56.976002 60.054001 63.132 1.716 4.7940001 7.8720002 10.95"
         y="36"
         id="tspan102"
         style="font-size:6px;font-variant:normal;font-weight:normal;font-stretch:normal;writing-mode:lr-tb;fill:#292929;fill-opacity:1;fill-rule:nonzero;stroke:none;font-family:Myriad Pro;-inkscape-font-specification:MyriadPro-Regular">1001500</tspan></text>
<g
       id="g104"><g
         clip-path="url(#clipPath108)"
         id="g106"><g
           transform="translate(36.0591,57.0278)"
           id="g112"><path
             d="M 0,0 0,27.091"
             id="path114"
             style="fill:none;stroke:#ffffff;stroke-width:1;stroke-linecap:square;stroke-linejoin:miter;stroke-miterlimit:10;stroke-opacity:1;stroke-dasharray:none" /></g><g
           transform="translate(144.4194,84.1187)"
           id="g116"><path
             d="M 0,0 0,-27.091"
             id="path118"
             style="fill:none;stroke:#ffffff;stroke-width:1;stroke-linecap:square;stroke-linejoin:miter;stroke-miterlimit:10;stroke-opacity:1;stroke-dasharray:none" /></g><g
           transform="translate(36.0591,84.1187)"
           id="g120"><path
             d="M 0,0 108.36,0"
             id="path122"
             style="fill:none;stroke:#ffffff;stroke-width:1;stroke-linecap:square;stroke-linejoin:miter;stroke-miterlimit:10;stroke-opacity:1;stroke-dasharray:none" /></g><g
           transform="translate(76.5044,84.1187)"
           id="g124"><path
             d="M 0,0 19.843,0"
             id="path126"
             style="fill:none;stroke:#373535;stroke-width:0.2;stroke-linecap:butt;stroke-linejoin:miter;stroke-miterlimit:10;stroke-opacity:1;stroke-dasharray:none" /></g><g
           transform="translate(80.5044,51.7246)"
           id="g128"><path
             d="M 0,0 0,30.959"
             id="path130"
             style="fill:none;stroke:#373535;stroke-width:0.2;stroke-linecap:butt;stroke-linejoin:miter;stroke-miterlimit:10;stroke-opacity:1;stroke-dasharray:none" /></g><g
           transform="translate(81.4961,52.0156)"
           id="g132"><path
             d="M 0,0 -0.997,-1.727 -1.995,0 0,0 z"
             id="path134"
             style="fill:#373535;fill-opacity:1;fill-rule:nonzero;stroke:none" /></g><g
           transform="translate(81.4961,82.3916)"
           id="g136"><path
             d="M 0,0 -0.997,1.727 -1.995,0 0,0 z"
             id="path138"
             style="fill:#373535;fill-opacity:1;fill-rule:nonzero;stroke:none" /></g></g></g><path
       d="m 144.4194,57.0278 c -1.869,0 -3.387,-1.516 -3.387,-3.385 0,-1.871 1.518,-3.387 3.387,-3.387 1.871,0 3.387,1.516 3.387,3.387 0,1.869 -1.516,3.385 -3.387,3.385"
       id="path36"
       style="fill:#ffffff;fill-opacity:1;fill-rule:nonzero;stroke:#000000;stroke-width:0.36000001;stroke-miterlimit:4;stroke-opacity:1;stroke-dasharray:none" /><g
       transform="translate(144.3862,57.062)"
       id="g38"><path
         d="m 0,0 c -1.871,0 -3.387,-1.517 -3.387,-3.386 0,-1.869 1.516,-3.387 3.387,-3.387 1.869,0 3.385,1.518 3.385,3.387 C 3.385,-1.517 1.869,0 0,0 z m -108.361,0 c -1.87,0 -3.387,-1.517 -3.387,-3.386 0,-1.869 1.517,-3.387 3.387,-3.387 1.87,0 3.386,1.518 3.386,3.387 0,1.869 -1.516,3.386 -3.386,3.386 z"
         id="path40"
         style="fill:none;stroke:#292929;stroke-width:0.068;stroke-linecap:square;stroke-linejoin:miter;stroke-miterlimit:10;stroke-opacity:1;stroke-dasharray:none" /></g><path
       d="m 36.0591,57.0278 c -1.871,0 -3.387,-1.516 -3.387,-3.385 0,-1.871 1.516,-3.387 3.387,-3.387 1.87,0 3.386,1.516 3.386,3.387 0,1.869 -1.516,3.385 -3.386,3.385"
       id="path32"
       style="fill:#ffffff;fill-opacity:1;fill-rule:nonzero;stroke:#000000;stroke-width:0.36000001;stroke-miterlimit:4;stroke-opacity:1;stroke-dasharray:none" /><text
       x="31.045597"
       y="-31.192038"
       transform="scale(1,-1)"
       id="text4000"
       xml:space="preserve"
       style="font-size:6px;font-style:normal;font-variant:normal;font-weight:normal;font-stretch:normal;line-height:125%;letter-spacing:0px;word-spacing:0px;fill:#000000;fill-opacity:1;stroke:none;font-family:Myriad Pro;-inkscape-font-specification:Myriad Pro"><tspan
         x="31.045597"
         y="-31.192038"
         id="tspan4002">100</tspan></text>
<rect
       width="3.7774487"
       height="51.854076"
       ry="0"
       x="17.51363"
       y="52.188358"
       transform="matrix(0.8,0,0,-0.8,0,93.124)"
       id="rect4233"
       style="fill:#ffffff;fill-opacity:1;stroke:#ffffff;stroke-width:0.44999999;stroke-miterlimit:4;stroke-opacity:1;stroke-dasharray:none" /><rect
       width="4.1208539"
       height="52.540886"
       x="203.98227"
       y="51.501549"
       transform="matrix(0.8,0,0,-0.8,0,93.124)"
       id="rect4235"
       style="fill:#ffffff;fill-opacity:1;stroke:#ffffff;stroke-width:0.44999999;stroke-miterlimit:4;stroke-opacity:1;stroke-dasharray:none" /><rect
       width="152.46533"
       height="2.7472358"
       x="14.017169"
       y="-12.637287"
       transform="scale(1,-1)"
       id="rect4237"
       style="fill:#ffffff;fill-opacity:1;stroke:#ffffff;stroke-width:0.37590763;stroke-miterlimit:4;stroke-opacity:1;stroke-dasharray:none" /><g
       transform="translate(32.6387,57.0278)"
       id="g42"><path
         d="M 0,0 0,-19.842"
         id="path44"
         style="fill:none;stroke:#373535;stroke-width:0.2;stroke-linecap:butt;stroke-linejoin:miter;stroke-miterlimit:10;stroke-opacity:1;stroke-dasharray:none" /></g><g
       transform="translate(39.4453,57.062)"
       id="g46"><path
         d="M 0,0 0,-19.842"
         id="path48"
         style="fill:none;stroke:#373535;stroke-width:0.2;stroke-linecap:butt;stroke-linejoin:miter;stroke-miterlimit:10;stroke-opacity:1;stroke-dasharray:none" /></g><g
       transform="translate(141.0327,57.062)"
       id="g50"><path
         d="M 0,0 0,-19.842"
         id="path52"
         style="fill:none;stroke:#373535;stroke-width:0.2;stroke-linecap:butt;stroke-linejoin:miter;stroke-miterlimit:10;stroke-opacity:1;stroke-dasharray:none" /></g><g
       transform="translate(147.771,57.062)"
       id="g54"><path
         d="M 0,0 0,-19.842"
         id="path56"
         style="fill:none;stroke:#373535;stroke-width:0.2;stroke-linecap:butt;stroke-linejoin:miter;stroke-miterlimit:10;stroke-opacity:1;stroke-dasharray:none" /></g></g></svg>