<?xml version="1.0" encoding="UTF-8" standalone="no"?>
<!-- Created with Inkscape (http://www.inkscape.org/) -->

<svg
   xmlns:dc="http://purl.org/dc/elements/1.1/"
   xmlns:cc="http://creativecommons.org/ns#"
   xmlns:rdf="http://www.w3.org/1999/02/22-rdf-syntax-ns#"
   xmlns:svg="http://www.w3.org/2000/svg"
   xmlns="http://www.w3.org/2000/svg"
   xmlns:sodipodi="http://sodipodi.sourceforge.net/DTD/sodipodi-0.dtd"
   xmlns:inkscape="http://www.inkscape.org/namespaces/inkscape"
   width="3902.9404"
   height="2385.4602"
   id="svg2"
   version="1.1"
   inkscape:version="0.48.4 r9939"
   sodipodi:docname="jersey-logo.svg">
  <defs
     id="defs4" />
  <sodipodi:namedview
     id="base"
     pagecolor="#ffffff"
     bordercolor="#666666"
     borderopacity="1.0"
     inkscape:pageopacity="0.0"
     inkscape:pageshadow="2"
     inkscape:zoom="0.25"
     inkscape:cx="1069.0382"
     inkscape:cy="1203.9116"
     inkscape:document-units="px"
     inkscape:current-layer="layer1"
     showgrid="false"
     inkscape:window-width="1680"
     inkscape:window-height="987"
     inkscape:window-x="-8"
     inkscape:window-y="-8"
     inkscape:window-maximized="1"
     showguides="true"
     inkscape:guide-bbox="true"
     fit-margin-top="0"
     fit-margin-left="0"
     fit-margin-right="0"
     fit-margin-bottom="0" />
  <metadata
     id="metadata7">
    <rdf:RDF>
      <cc:Work
         rdf:about="">
        <dc:format>image/svg+xml</dc:format>
        <dc:type
           rdf:resource="http://purl.org/dc/dcmitype/StillImage" />
        <dc:title />
      </cc:Work>
    </rdf:RDF>
  </metadata>
  <g
     inkscape:label="Ebene 1"
     inkscape:groupmode="layer"
     id="layer1"
     transform="translate(642.93695,779.93689)">
    <path
       style="fill:#b3b3b3;stroke:#000000;stroke-width:6.25;stroke-linecap:butt;stroke-linejoin:miter;stroke-miterlimit:4;stroke-opacity:1;stroke-dasharray:none"
       d="m -194.28571,22.362183 c -37.961,-32.2658961 -115.49208,-17.0543261 -160,-22.85714325 C -421.04438,-104.89899 -566.98048,-90.385757 -617.14286,3.790754 c -16.16805,32.392166 -29.7701,83.865938 -18.57143,122.857146 11.19867,38.99121 44.85189,100.19914 87.14287,115.71428 42.29098,15.51514 131.66368,15.6435 182.85714,-42.85714 55.47917,-7.07207 101.11027,18.03954 148.57142,-7.14286 47.46115,-25.1824 60.81815,-137.734101 22.85715,-169.999997 z"
       id="path3012"
       inkscape:connector-curvature="0"
       sodipodi:nodetypes="zcczzczz" />
    <path
       style="fill:#ffffff;stroke:#000000;stroke-width:6.25;stroke-linecap:butt;stroke-linejoin:miter;stroke-miterlimit:4;stroke-opacity:1;stroke-dasharray:none"
       d="m -248.57143,-141.92353 c 29.3355,-5.90407 103.99541,13.53783 145.71429,34.28571 41.718882,20.74788 39.976312,75.751708 65.714283,137.142859 25.737971,61.391151 26.602491,117.289211 11.428571,214.285711 -15.17392,96.9965 -4.348298,282.38246 -71.428571,311.42858 -67.080273,29.04612 -82.855743,-33.5908 -102.857143,-60 -20.0014,-26.4092 -12.31643,-52.84064 -20,-77.14286 -7.68357,-24.30222 -14.91442,-33.02103 -25.71429,-68.57143 -10.79987,-35.5504 -28.88402,-99.17302 -34.28571,-145.71429 -5.40169,-46.54127 -5.21806,-83.7994 -4.28571,-128.571424 0.93235,-44.77203 3.41723,-104.170092 10,-140.000001 6.58277,-35.829905 0.6645,-55.524495 25.71428,-77.142855 z"
       id="path2998"
       inkscape:connector-curvature="0"
       sodipodi:nodetypes="czzzzzzzzzzc" />
    <path
       style="fill:#a10038;fill-opacity:1;stroke:#000000;stroke-width:6.25;stroke-linecap:butt;stroke-linejoin:miter;stroke-miterlimit:4;stroke-opacity:1;stroke-dasharray:none"
       d="m 452.85714,-44.780675 c 7.77475,-19.423725 41.46602,-29.992634 62.85715,-28.571429 21.39113,1.421205 43.71063,21.371662 65.71428,24.285715 22.00365,2.914053 34.41276,2.806077 62.85714,-5.714286 28.44438,-8.520363 77.64996,-47.770415 101.42858,-54.285715 19.27725,1.36354 40.83454,-7.41909 50,-5.71429 6.33726,16.579263 -56.03281,31.195362 -78.57143,41.428576 -22.53862,10.233214 -36.83118,15.951913 -55.71429,21.428572 -18.88311,5.476659 -33.46124,11.943146 -57.14286,11.428571 -23.68162,-0.514575 -60.85069,-15.314694 -81.42857,-20 -12.72074,18.171837 -5.70245,54.2684748 -27.14285,55.7142859 -21.4404,1.4458111 -50.6319,-20.5762749 -42.85715,-39.9999999 z"
       id="path3821"
       inkscape:connector-curvature="0"
       sodipodi:nodetypes="zzzzcczzzccz" />
    <path
       style="fill:#b3b3b3;stroke:#000000;stroke-width:6.25;stroke-linecap:butt;stroke-linejoin:miter;stroke-miterlimit:4;stroke-opacity:1;stroke-dasharray:none"
       d="m 177.14286,-170.49496 -2.85715,200 142.85715,45.714285 154.28571,-17.142857 0,-231.428568 z"
       id="path3018"
       inkscape:connector-curvature="0"
       sodipodi:nodetypes="cccccc" />
    <path
       style="fill:#b3b3b3;stroke:#000000;stroke-width:6.25;stroke-linecap:butt;stroke-linejoin:miter;stroke-miterlimit:4;stroke-opacity:1;stroke-dasharray:none"
       d="m 829.67754,51.355736 c 37.961,-32.2659 115.49208,-17.05433 160,-22.85715 66.75866,-104.40403 212.69476,-89.89079 262.85716,4.28572 16.168,32.39216 29.7701,83.865934 18.5714,122.857144 -11.1986,38.99121 -44.8519,100.19914 -87.1428,115.71428 -42.291,15.51514 -131.6637,15.6435 -182.8572,-42.85714 -55.47916,-7.07207 -101.11026,18.03954 -148.57141,-7.14286 -47.46115,-25.1824 -60.81815,-137.7341 -22.85715,-169.999994 z"
       id="path3012-1"
       inkscape:connector-curvature="0"
       sodipodi:nodetypes="zcczzczz" />
    <path
       style="fill:#ffffff;stroke:#000000;stroke-width:6.25;stroke-linecap:butt;stroke-linejoin:miter;stroke-miterlimit:4;stroke-opacity:1;stroke-dasharray:none"
       d="m 717.14286,-46.209246 c 40.25269,-46.501314 90.66699,-60.337574 120,-67.142854 29.33301,-6.80528 33.81833,-0.34063 58.57142,-2.85714 21.89595,26.054913 29.85508,60.573162 38.57143,114.2857083 8.71635,53.7125457 8.47008,139.5231717 0,200.0000017 -8.47008,60.47683 -30.63309,128.12469 -45.71428,160 -15.08119,31.87531 -10.3283,9.90631 -24.28572,40 C 850.32829,428.17016 848.45939,553.47752 755.71428,558.07646 662.96917,562.6754 690.74358,274.35034 680,166.6479 669.25642,58.945459 676.89016,0.29206758 717.14286,-46.209246 z"
       id="path3002"
       inkscape:connector-curvature="0"
       sodipodi:nodetypes="zzczzzzzzz" />
    <path
       style="fill:#000000;stroke:#000000;stroke-width:6.25;stroke-linecap:butt;stroke-linejoin:miter;stroke-miterlimit:4;stroke-opacity:1;stroke-dasharray:none"
       d="m 778.82762,478.59554 c 72.66812,12.24408 64.90145,29.21837 67.68021,40.4061 2.77876,11.18773 -7.12208,25.56398 -6.06091,38.3858 1.06117,12.82182 7.50146,8.90382 12.12183,36.36549 -21.6436,29.48197 -63.43635,90.45301 -88.89343,131.31983 -25.45708,40.86682 -47.96218,75.8139 -64.64976,113.13708 -16.68758,37.32318 -34.32313,77.64757 -36.36549,109.09648 -2.04236,31.44891 4.82752,52.88828 14.14214,72.73098 9.31462,19.8427 53.38294,26.8678 34.34518,50.5076 C 652.7137,1044.6872 636.41425,1040.4866 587.90878,987.71245 539.40332,934.93832 452.09844,839.43619 486.89353,725.07276 521.68862,610.70933 706.15949,466.35146 778.82762,478.59554 z"
       id="path3819"
       inkscape:connector-curvature="0"
       sodipodi:nodetypes="zzzczzzzczzz" />
    <path
       style="fill:#e6e6e6;stroke:#000000;stroke-width:6.25;stroke-linecap:butt;stroke-linejoin:miter;stroke-miterlimit:4;stroke-opacity:1;stroke-dasharray:none"
       d="m 399.81762,1340.6916 c 0,0 142.3594,77.3211 192,104 11.6406,-27.3211 12.9974,-30.2939 28,-44 15.0026,-13.7061 41.6302,-27.0533 62,-32 20.3698,-4.9467 26.6132,-1.2575 56,0 1.3868,-26.7425 0.5819,-71.6147 -2,-110 -2.5819,-38.3853 -2.4427,-95.1058 -14,-120 -11.5573,-24.8942 -9.8339,-23.2634 -30,-32 -20.1661,-8.7366 -59.8242,-5.555 -88,0 -28.1758,5.555 -53.2988,19.9388 -78,32 -24.7012,12.0612 -52.2698,23.4505 -70,40 -17.7302,16.5495 -26.572,34.4836 -36,54 -9.428,19.5164 -17.1215,43.7007 -20,62 -2.8785,18.2993 0,46 0,46 z"
       id="path3816-5"
       inkscape:connector-curvature="0"
       sodipodi:nodetypes="cczzczzzzzzzzc" />
    <path
       style="fill:#ffffff;stroke:#000000;stroke-width:6.25;stroke-linecap:butt;stroke-linejoin:miter;stroke-miterlimit:4;stroke-opacity:1;stroke-dasharray:none"
       d="m 477.14286,1263.7908 c -0.40739,44.183 25.4605,58.4201 45.71428,80 25.96806,4.4371 53.72682,-5.5493 72.85715,2.8571 19.13033,8.4064 26.63975,20.9991 31.42857,40 4.78882,19.0009 -6.1767,33.8107 -10,57.1429 -3.8233,23.3322 -19.78889,46.8272 -11.42857,74.2857 8.36032,27.4585 34.33892,56.4085 62.85714,64.2856 28.51822,7.8771 60.29007,0.2164 80,-15.7142 19.70993,-15.9306 31.79064,-38.0954 34.28571,-62.8571 2.49507,-24.7617 -10.6177,-53.9573 -22.85714,-74.2858 -12.23944,-20.3285 -28.94834,-28.7151 -38.57143,-44.2856 -9.62309,-15.5705 -18.66118,-27.5449 -15.71428,-47.1429 2.9469,-19.598 25.41049,-29.0443 35.71428,-55.7143 4.5895,-30.9557 16.74025,-59.9166 8.57143,-91.4285 -8.16883,-31.512 -29.88991,-68.8295 -50,-84.2858 -20.11009,-15.4563 -30.48572,-19.8814 -54.28571,-20 -23.79999,-0.1186 -46.79545,1.2715 -80,28.5714 -33.20455,27.2999 -88.16404,104.3885 -88.57143,148.5715 z"
       id="path3008"
       inkscape:connector-curvature="0"
       sodipodi:nodetypes="zczzzzzzzzzzczzzzz" />
    <path
       style="fill:#e6e6e6;stroke:#000000;stroke-width:6.25;stroke-linecap:butt;stroke-linejoin:miter;stroke-miterlimit:4;stroke-opacity:1;stroke-dasharray:none"
       d="m -116.02687,1387.7042 c -13.8017,-32.3907 -19.7668,-113.1653 -14,-158 5.7668,-44.8347 16.1774,-84.2846 37.999998,-106 21.8226,-21.7154 38.393,-20.6316 68,-24 29.6069999,-3.3684 66.2819,1.0467 106,12 39.718102,10.9533 99.475002,32.9796 128.000002,58 43.8165,47.6038 70.8087,113.1401 62,136 -48.0616,35.897 -179.369002,103.1164 -220.000002,136 -36.7151,-25.8301 -56.1159001,-54.6562 -96,-62 -39.8841,-7.3438 -52.1983,4.3907 -71.999998,8 z"
       id="path3814-5"
       inkscape:connector-curvature="0"
       sodipodi:nodetypes="czzzzccczc" />
    <path
       style="fill:#ffffff;stroke:#000000;stroke-width:6.25;stroke-linecap:butt;stroke-linejoin:miter;stroke-miterlimit:4;stroke-opacity:1;stroke-dasharray:none"
       d="m 11.428571,1372.3622 c 10.606396,-11.1112 27.471994,-23.0494 42.857143,-25.7143 15.385149,-2.6649 11.131704,18.4024 42.857143,8.5714 C 138.8683,1311.1026 183.46231,1289.1128 180,1222.3622 c -3.4623,-66.7505 -28.98765,-62.6261 -74.28571,-65.7143 -45.298065,-3.0882 -96.9396006,-59.5158 -111.4285757,-55.7143 -14.4889753,3.8015 -44.2896653,-10.0585 -62.8571433,-2.8571 -18.567478,7.2014 -28.711987,23.6456 -40.000001,40 -11.28801,16.3544 -21.15285,30.357 -25.71428,57.1428 -4.56143,26.7858 0.63784,75.1143 8.57142,100 7.93358,24.8857 23.0716,32.4115 28.571433,48.5715 5.499832,16.16 9.518402,31.3895 5.714286,45.7142 -3.804116,14.3247 -13.040029,18.8716 -25.714289,34.2858 -12.67426,15.4142 -42.92636,32.3816 -51.42857,57.1428 -8.50221,24.7612 -6.61041,58.2576 5.71429,80 12.3247,21.7424 32.82168,35.1703 57.14285,40 24.321167,4.8297 55.742527,-2.6423 77.142861,-17.1428 21.4003336,-14.5005 37.6413531,-39.1586 42.857143,-62.8572 5.21579,-23.6986 -7.4189207,-50.0211 -11.4285711,-68.5714 -4.0096504,-18.5503 -13.1075259,-28.5319 -11.4285715,-42.8572 1.6789548,-14.3253 9.39360342,-26.0316 19.9999996,-37.1428 z"
       id="path3006"
       inkscape:connector-curvature="0"
       sodipodi:nodetypes="zzczzzzzzzzzzzzzzzzzz" />
    <path
       style="fill:#ffffff;stroke:#000000;stroke-width:6.25;stroke-linecap:butt;stroke-linejoin:miter;stroke-miterlimit:4;stroke-opacity:1;stroke-dasharray:none"
       d="m -17.142857,1029.505 c -20.953797,17.42 -10.100564,29.1691 -5.714286,54.2858 4.386278,25.1167 20.695136,53.0898 42.857143,88.5714 22.162007,35.4816 64.298302,80.9388 94.28571,120 29.98741,39.0612 67.70618,83.9046 85.71429,114.2857 18.00811,30.3811 18.92139,40.6222 28.57143,62.8571 16.7929,19.3778 48.54164,43.1218 78.57143,45.7143 30.02978,2.5925 49.09179,-18.3959 78.57143,-39.9999 20.90821,-45.8898 70.40316,-117.5475 108.57142,-174.2858 38.16826,-56.7383 100.35946,-114.291 122.85715,-162.8571 22.49769,-48.5661 10.94933,-53.867 17.14285,-102.8571 6.19352,-48.99013 -165.22703,-2.4357 -257.14285,-10e-5 -91.91582,2.4356 -219.98021,5.1188 -285.714289,2.8572 -65.734076,-2.2616 -87.6176314,-25.9915 -108.571428,-8.5715 z"
       id="path3004"
       inkscape:connector-curvature="0"
       sodipodi:nodetypes="zzzzzczczzzzzz" />
    <path
       style="fill:#000000;stroke:#000000;stroke-width:6.25;stroke-linecap:butt;stroke-linejoin:miter;stroke-miterlimit:4;stroke-opacity:1;stroke-dasharray:none"
       d="m -209.58158,477.87342 c -1.42766,23.40238 -6.76695,59.49998 -5.36766,83.06019 1.3993,23.56021 1.90853,41.75859 17.80638,74.28572 15.89785,32.52713 56.92598,83.4711 80,114.28571 23.074022,30.81461 45.557431,42.64828 57.14286,71.42857 11.585429,28.78029 1.778927,69.40586 8.571429,94.28572 6.792502,24.87986 13.620029,32.31792 9.551844,64.38724 -4.068185,32.06933 -54.278901,61.69713 -69.551843,92.75563 43.315905,-10.3577 100.102262,-34.1926 134.285713,-69.2944 34.183451,-35.10187 49.725518,-63.69816 40,-119.27705 -9.725518,-55.57889 -75.343466,-106.10793 -105.714286,-151.42857 -30.37082,-45.32064 -49.508645,-80.90639 -77.142857,-120 -27.63421,-39.09361 -55.82904,-142.73885 -89.58158,-134.48876 z"
       id="path3817"
       inkscape:connector-curvature="0"
       sodipodi:nodetypes="czzzzzzczzzzc" />
    <path
       style="fill:#a10038;fill-opacity:1;stroke:#000000;stroke-width:6.25;stroke-linecap:butt;stroke-linejoin:miter;stroke-miterlimit:4;stroke-opacity:1;stroke-dasharray:none"
       d="m -108.57143,-116.20925 c -19.31601,41.350269 -32.29103,60.846671 -50,142.857147 -17.70897,82.010473 -13.93664,265.867603 -24.28571,348.571433 -10.34907,82.70383 -11.18652,91.48798 -22.85715,125.71428 4.04366,37.08344 19.87124,53.09541 37.14286,88.57143 17.27162,35.47602 45.63209,84.78287 68.57143,122.85714 22.939338,38.07427 53.33781,71.67865 68.571429,105.71429 15.233619,34.03564 26.9111488,97.37467 28.5714282,128.57142 1.6602794,31.19675 -15.4843702,42.87906 -25.7142862,57.14281 -10.229915,14.2638 -20.53955,8.1181 -20,37.1429 41.968121,23.3105 111.016372,75.2223 165.714289,97.1429 54.69792,21.9206 97.87811,32.8655 157.14285,37.1428 59.26474,4.2773 128.68849,5.3872 194.28572,-17.1428 65.59723,-22.53 151.60618,-85.791 191.42857,-121.4286 -4.46334,-25.6375 -25.32908,-11.6333 -35.71429,-28.5715 -10.3852,-16.93819 -14.23586,-8.40142 -12.85714,-41.4285 1.37872,-33.02708 22.41,-89.83603 47.14285,-141.42857 24.73285,-51.59254 72.92857,-109.79603 104.28572,-161.42858 31.35715,-51.63255 44.92879,-82.50757 80,-154.28571 -7.78593,-74.63528 -11.39635,-183.33446 -17.14285,-265.71429 -5.7465,-82.37983 -7.49036,-159.089796 -20,-214.285711 -12.50964,-55.195915 -14.9859,-81.369433 -37.14286,-117.142856 -28.08722,16.185269 -66.12519,28.912205 -104.28572,47.142857 -33.15335,15.826109 -76.07661,17.79275 -105.71428,20.000001 -29.63767,2.207251 -53.03316,-3.246401 -82.85715,-7.142859 C 445.87744,2.7524849 401.77393,16.448646 312.85714,19.50504 243.78641,28.1691 186.30414,-6.6338705 171.42857,-34.780675 142.29045,-34.36393 71.740251,-20.453936 21.428571,-33.352104 -28.883109,-46.250272 -89.255416,-128.98809 -108.57143,-116.20925 z"
       id="path2996"
       inkscape:connector-curvature="0"
       sodipodi:nodetypes="czzczzzzzczzzczzzzczzcczccczc" />
    <path
       style="fill:#000000;fill-opacity:1;stroke:#000000;stroke-width:6.25;stroke-linecap:butt;stroke-linejoin:miter;stroke-miterlimit:4;stroke-opacity:1;stroke-dasharray:none"
       d="m 522.85714,-66.209247 -27.14285,42.857143 28.57142,32.8571432 c 0,0 71.56595,-2.6345408 114.28572,-11.4285714 42.71977,-8.7940308 140,-44.2857148 140,-44.2857148 l -22.85714,-41.428571 -42.85715,7.142857 -60,27.142857 -51.42857,8.571429 z"
       id="path3823"
       inkscape:connector-curvature="0"
       sodipodi:nodetypes="ccczcccccc" />
    <path
       style="fill:#ffffff;stroke:#000000;stroke-width:6.25;stroke-linecap:butt;stroke-linejoin:miter;stroke-miterlimit:4;stroke-opacity:1;stroke-dasharray:none"
       d="m -251.42857,-693.3521 c -17.81085,162.33794 -8.11231,330.95888 80,465.71428 59.1674,24.04391 92.667538,22.46873 139.999999,40 47.332461,17.53127 103.897283,51.18977 142.857141,65.71429 38.95986,14.52452 33.75166,17.91754 88.57143,25.714284 54.81977,7.79674 175.44368,8.098289 240,0 64.55632,-8.098284 94.81962,-18.393494 145.71429,-37.142854 50.89467,-18.74936 98.64981,-42.08702 142.85714,-60 44.20732,-17.91299 67.37784,-23.96992 120,-51.42857 58.33645,-101.74436 22.85714,-448.57143 22.85714,-448.57143 z"
       id="path3016"
       inkscape:connector-curvature="0"
       sodipodi:nodetypes="cczzzzzzcc" />
    <path
       style="fill:#cccccc;stroke:#000000;stroke-width:6.25;stroke-linecap:butt;stroke-linejoin:miter;stroke-miterlimit:4;stroke-opacity:1;stroke-dasharray:none"
       d="m 51.428571,203.79075 c -25.154923,6.32722 -41.210572,25.22045 -62.857142,57.14286 -21.64657,31.92241 -36.183655,90.91315 -51.428572,137.14286 -15.244917,46.22971 -40.714207,98.72241 -39.999997,140 0.71421,41.27759 10.61892,72.93355 31.428569,97.14286 20.809649,24.20931 51.428901,45.33694 79.9999996,40 C 37.142527,669.88239 36.30432,659.583 65.714286,612.36218 95.124252,565.14136 143.07888,435.01946 157.14286,380.93361 171.20684,326.84776 175.03769,323.69922 168.57143,295.21933 162.10517,266.73944 141.65255,236.3377 120,220.93361 98.347451,205.52952 76.583494,197.46353 51.428571,203.79075 z"
       id="path3825"
       inkscape:connector-curvature="0"
       sodipodi:nodetypes="zzzzzzzzzzz" />
    <path
       style="fill:#cccccc;stroke:#000000;stroke-width:6.25;stroke-linecap:butt;stroke-linejoin:miter;stroke-miterlimit:4;stroke-opacity:1;stroke-dasharray:none"
       d="m 574.28571,189.50504 c -17.15906,11.61725 -43.51397,34.50658 -57.14285,57.14286 -13.62888,22.63628 -22.60722,31.04679 -22.85715,74.28571 -0.24993,43.23892 35.58406,123.84204 51.42858,174.28572 15.84452,50.44368 22.96252,101.21424 42.85714,128.57142 19.89462,27.35718 29.70361,38.08479 54.28571,40 24.5821,1.91521 42.09663,-13.07035 59.42857,-33.14285 17.33194,-20.0725 28.93425,-48.76177 33.71429,-74.28572 4.78004,-25.52395 13.81039,-32.63236 6.85714,-81.14285 -6.95325,-48.51049 -31.19606,-133.74101 -54.57143,-183.71429 -23.37537,-49.97328 -18.94049,-61.21758 -44,-83.14286 -25.05951,-21.92528 -52.84094,-30.47439 -70,-18.85714 z"
       id="path3827"
       inkscape:connector-curvature="0"
       sodipodi:nodetypes="zzzzzzzzzzzz" />
    <path
       sodipodi:type="arc"
       style="fill:#cccccc;stroke:#000000;stroke-width:5.96760321;stroke-linecap:round;stroke-miterlimit:4;stroke-opacity:1;stroke-dasharray:none;stroke-dashoffset:0"
       id="path3829"
       sodipodi:cx="331.42856"
       sodipodi:cy="550.93359"
       sodipodi:rx="131.42857"
       sodipodi:ry="132.85715"
       d="m 462.85713,550.93359 c 0,73.37498 -58.84257,132.85715 -131.42857,132.85715 -72.586,0 -131.42858,-59.48217 -131.42858,-132.85715 0,-73.37497 58.84258,-132.85714 131.42858,-132.85714 72.586,0 131.42857,59.48217 131.42857,132.85714 z"
       transform="matrix(1.0314835,0,0,1.063403,-17.577395,-43.502298)" />
    <text
       xml:space="preserve"
       style="font-size:72px;font-style:normal;font-variant:normal;font-weight:normal;font-stretch:normal;text-align:end;line-height:125%;letter-spacing:0px;word-spacing:0px;text-anchor:end;fill:#000000;fill-opacity:1;stroke:none;font-family:Smudger LET;-inkscape-font-specification:Smudger LET"
       x="608.57141"
       y="115.21933"
       id="text3831"
       sodipodi:linespacing="125%"><tspan
         sodipodi:role="line"
         id="tspan3833"
         x="608.57141"
         y="115.21933" /></text>
    <text
       xml:space="preserve"
       style="font-size:186.86955261px;font-style:normal;font-variant:normal;font-weight:normal;font-stretch:normal;text-align:end;line-height:125%;letter-spacing:0px;word-spacing:0px;text-anchor:end;fill:#ffffff;fill-opacity:1;stroke:none;font-family:Arial;-inkscape-font-specification:Arial"
       x="719.84308"
       y="355.21902"
       id="text3835"
       sodipodi:linespacing="125%"
       transform="matrix(0.87903806,-0.30570546,0.29488867,1.0350529,0,0)"><tspan
         sodipodi:role="line"
         id="tspan3837"
         x="719.84308"
         y="355.21902">1</tspan></text>
    <path
       style="fill:none;stroke:#000000;stroke-width:5;stroke-linecap:butt;stroke-linejoin:miter;stroke-miterlimit:4;stroke-opacity:1;stroke-dasharray:none"
       d="m 313.95541,22.814709 c 0,0 1.78354,32.89969 0,50.911688 -1.78354,18.011998 -11.31371,56.568543 -11.31371,56.568543"
       id="path3906"
       inkscape:connector-curvature="0"
       sodipodi:nodetypes="czc" />
    <path
       style="fill:#b3b3b3;stroke:#000000;stroke-width:6.25;stroke-linecap:butt;stroke-linejoin:miter;stroke-miterlimit:4;stroke-opacity:1;stroke-dasharray:none"
       d="m 1843.5525,46.60364 c -37.961,-32.2659 -115.4921,-17.05433 -160,-22.85715 -66.7587,-104.404019 -212.6948,-89.890789 -262.8572,4.28572 -16.168,32.39217 -29.7701,83.86594 -18.5714,122.85715 11.1987,38.99121 44.8519,100.19914 87.1429,115.71428 42.2909,15.51514 131.6636,15.6435 182.8571,-42.85714 55.4792,-7.07207 101.1103,18.03954 148.5714,-7.14286 47.4612,-25.1824 60.8182,-137.7341 22.8572,-170 z"
       id="path3012-0"
       inkscape:connector-curvature="0"
       sodipodi:nodetypes="zcczzczz" />
    <path
       style="fill:#ffffff;stroke:#000000;stroke-width:6.25;stroke-linecap:butt;stroke-linejoin:miter;stroke-miterlimit:4;stroke-opacity:1;stroke-dasharray:none"
       d="m 1762.7982,-159.27443 c 29.3355,-5.90407 103.9955,13.53783 145.7143,34.28571 41.7189,20.74788 39.9763,75.751698 65.7143,137.14285 25.738,61.39116 26.6025,117.28922 11.4286,214.28572 -15.1739,96.9965 -4.3483,282.38242 -71.4286,311.42862 -67.0803,29.0461 -82.8557,-33.5908 -102.8571,-60.00004 -20.0014,-26.4092 -12.3165,-52.84064 -20,-77.14286 -7.6836,-24.30222 -14.9145,-33.02103 -25.7143,-68.57143 -10.7999,-35.5504 -28.884,-99.17302 -34.2857,-145.71429 -5.4017,-46.54127 -5.2181,-83.7994 -4.2857,-128.57143 0.9323,-44.77203 3.4172,-104.170092 10,-140.000002 6.5827,-35.829898 0.6645,-55.524488 25.7142,-77.142848 z"
       id="path2998-7"
       inkscape:connector-curvature="0"
       sodipodi:nodetypes="czzzzzzzzzzc" />
    <path
       style="fill:#b3b3b3;stroke:#000000;stroke-width:6.25;stroke-linecap:butt;stroke-linejoin:miter;stroke-miterlimit:4;stroke-opacity:1;stroke-dasharray:none"
       d="m 2237.8293,1251.3845 c 10.7767,33.0798 -6.8782,5.2614 71.6984,104.3259 78.5767,99.0645 79.3084,93.6035 129.9168,4.4436 50.6083,-89.1598 40.0715,-71.4033 69.8406,-113.6152 29.7691,-42.2119 -126.9376,-57.7363 -174,-40 -47.0624,17.7363 -108.2325,11.7659 -97.4558,44.8457 z"
       id="path3818"
       inkscape:connector-curvature="0"
       sodipodi:nodetypes="zzzzzz" />
    <path
       style="fill:#e6e6e6;stroke:#000000;stroke-width:6.25;stroke-linecap:butt;stroke-linejoin:miter;stroke-miterlimit:4;stroke-opacity:1;stroke-dasharray:none"
       d="m 2580.9434,1256.1408 c 25.7794,5.427 53.8998,-3.4905 72.6946,5.6414 18.7948,9.1319 25.8171,22.0026 29.8758,41.1727 4.0587,19.1702 -7.4652,33.5498 -12.178,56.7187 -4.7129,23.1689 -21.5653,46.0361 -14.2613,73.7942 7.3041,27.7582 32.1565,57.6805 60.3525,66.6425 28.1961,8.962 60.2378,2.5221 80.5426,-12.6431 20.3047,-15.1651 33.2243,-36.8517 36.6646,-61.4999 3.4401,-24.6481 -8.5464,-54.3239 -19.9995,-75.1056 -11.453,-20.7817 -27.8289,-29.8012 -36.8495,-45.7283 -9.0206,-15.9272 -17.5941,-28.2385 -13.8998,-47.7094 3.6942,-19.471 26.5026,-28.0513 37.8189,-54.3077 -58.1189,-6.6338 -134.6118,21.4962 -220.7609,53.0245 z"
       id="path3008-8"
       inkscape:connector-curvature="0"
       sodipodi:nodetypes="czzzzzzzzzzcc" />
    <path
       style="fill:#ffffff;stroke:#000000;stroke-width:6.25;stroke-linecap:butt;stroke-linejoin:miter;stroke-miterlimit:4;stroke-opacity:1;stroke-dasharray:none"
       d="m 2497.3266,1352.2018 c 0,0 139.2982,82.709 187.8821,111.2669 12.677,-26.856 14.1465,-29.7747 29.6623,-42.897 15.5158,-13.1223 42.6344,-25.4414 63.1785,-29.6054 20.544,-4.1641 26.6418,-0.2388 55.959,2.1417 2.4085,-26.6699 3.3203,-71.5401 2.2083,-109.9961 -1.1119,-38.4559 1.1964,-95.1296 -9.4004,-120.4476 -10.5967,-25.318 -8.937,-23.6225 -28.7542,-33.1239 -19.8172,-9.5015 -59.568,-7.8389 -87.9356,-3.3655 -28.3677,4.4733 -54.0224,17.8858 -79.1668,28.9935 -25.1444,11.1077 -53.1284,21.4343 -71.4785,37.2936 -18.3502,15.8593 -27.8714,33.4422 -38.0389,52.5837 -10.1675,19.1416 -18.7803,43.0139 -22.3565,61.1898 -3.5763,18.1758 -1.7593,45.9663 -1.7593,45.9663 z"
       id="path3816"
       inkscape:connector-curvature="0"
       sodipodi:nodetypes="cczzczzzzzzzzc" />
    <path
       style="fill:#e6e6e6;stroke:#000000;stroke-width:6.25;stroke-linecap:butt;stroke-linejoin:miter;stroke-miterlimit:4;stroke-opacity:1;stroke-dasharray:none"
       d="m 2081.3333,1282.2044 c 164.5754,-45.0929 -69.1972,-155.437 -107.3993,-32.7027 4.8778,16.3585 8.311,31.7305 3.9618,45.8993 -4.3491,14.1687 -13.7522,18.3591 -27.0067,33.2773 -13.2545,14.9182 -44.1334,30.7162 -53.5764,55.1341 -9.4429,24.4179 -8.8336,57.9622 2.6506,80.16 11.4841,22.1979 31.4526,36.3998 55.5713,42.1562 24.1186,5.7563 55.8028,-0.5086 77.742,-14.18 21.9393,-13.6715 39.1114,-37.6904 45.2298,-61.1722 6.1183,-23.4818 -5.5005,-50.2682 -8.7978,-68.9583 -3.2972,-18.6901 -12.0067,-29.0123 -9.7812,-43.2629 2.2257,-14.2506 10.3823,-25.6533 21.4059,-36.3508 z"
       id="path3006-4"
       inkscape:connector-curvature="0"
       sodipodi:nodetypes="cczzzzzzzzzc" />
    <path
       style="fill:#ffffff;stroke:#000000;stroke-width:6.25;stroke-linecap:butt;stroke-linejoin:miter;stroke-miterlimit:4;stroke-opacity:1;stroke-dasharray:none"
       d="m 1870.1117,1424.267 c -12.5529,-32.8948 -15.4244,-113.8385 -7.9472,-158.4198 7.4773,-44.5814 19.389,-83.6043 42.0261,-104.4692 22.6372,-20.8649 39.154,-19.1482 68.8682,-21.3818 29.7141,-2.2336 66.1933,3.5809 105.4635,16.0451 39.2701,12.4643 98.1409,36.7599 125.6882,62.8529 41.9638,49.2447 66.4299,115.7654 56.7533,138.2717 -49.3993,34.0326 -183.1814,96.181 -225.0403,127.4867 -35.7003,-27.2154 -53.9845,-56.7624 -93.5586,-65.6261 -39.574,-8.8638 -52.328,2.3912 -72.2532,5.2405 z"
       id="path3814"
       inkscape:connector-curvature="0"
       sodipodi:nodetypes="czzzzccczc" />
    <path
       style="fill:#ffffff;stroke:#000000;stroke-width:6.25;stroke-linecap:butt;stroke-linejoin:miter;stroke-miterlimit:4;stroke-opacity:1;stroke-dasharray:none"
       d="m 2024.0763,1013.699 c -17.0551,22.4042 -5.688,67.4667 4.5522,90.2401 36.6441,53.4601 106.9138,80.8692 158.5591,119.1512 43.5269,32.6543 123.3126,88.5135 147.4524,121.7283 24.1398,33.2148 16.8331,34.9409 -3.797,63.0014 -6.3107,8.5806 -25.1758,17.4428 -27.1283,28.9837 -1.9525,11.5409 7.0415,24.7609 20.6836,34.8165 13.642,10.0556 41.2863,14.482 59.4971,14.2859 18.2108,-0.1961 33.0309,-5.4067 46.5018,-12.2305 13.4709,-6.8238 24.6376,-16.3084 27.1283,-28.9837 2.4907,-12.6753 -2.9956,-19.8829 -10.9204,-28.4385 -7.9248,-8.5555 -28.2656,-17.1465 -37.5484,-29.7003 -19.6974,-48.638 19.0392,-62.5509 36.7431,-79.9965 17.7041,-17.4455 78.7766,-71.5278 109.2284,-98.4093 35.1067,-48.8252 130.9157,-70.9038 155.3641,-111.1395 12.9362,-22.3491 18.9646,-64.1772 -3.5146,-91.2011 -22.4792,-27.024 -51.6964,-17.66515 -109.3841,-18.19667 -57.6877,-0.53153 -170.6541,-15.33891 -253.6612,-13.71118 -83.0071,1.62773 -189.9188,14.35776 -243.0468,22.7214 -53.128,8.36365 -59.6542,-5.32532 -76.7093,17.07875 z"
       id="path3812"
       inkscape:connector-curvature="0"
       sodipodi:nodetypes="zcczczzzzzzczcczzzzz" />
    <path
       style="fill:#b3b3b3;stroke:#000000;stroke-width:6.25;stroke-linecap:butt;stroke-linejoin:miter;stroke-miterlimit:4;stroke-opacity:1;stroke-dasharray:none"
       d="m 2811.3523,30.31937 c 37.961,-32.265898 115.492,-17.05433 160,-22.85715 66.7586,-104.404028 212.6947,-89.890788 262.8571,4.28572 16.168,32.39216 29.7701,83.86593 18.5714,122.85714 -11.1986,38.99121 -44.8519,100.19914 -87.1428,115.71428 -42.291,15.51514 -131.6637,15.6435 -182.8572,-42.85714 -55.4791,-7.07207 -101.1102,18.03954 -148.5714,-7.14286 -47.4611,-25.1824 -60.8181,-137.7341 -22.8571,-169.99999 z"
       id="path3012-1-9"
       inkscape:connector-curvature="0"
       sodipodi:nodetypes="zcczzczz" />
    <path
       style="fill:#ffffff;stroke:#000000;stroke-width:6.25;stroke-linecap:butt;stroke-linejoin:miter;stroke-miterlimit:4;stroke-opacity:1;stroke-dasharray:none"
       d="m 2709.1224,-85.776428 c 40.2527,-46.501312 90.667,-60.337572 120,-67.142852 29.333,-6.80528 33.8183,-0.34063 58.5714,-2.85714 21.896,26.05491 29.8551,60.57316 38.5715,114.285703 8.7163,53.712547 8.47,139.523177 0,200.000007 -8.4701,60.47683 -30.6331,128.12469 -45.7143,160 -15.0812,31.87531 -10.3283,9.90631 -24.2857,40 -13.9575,30.09369 -15.8264,155.40105 -108.5715,159.99999 -92.7451,4.59894 -64.9707,-283.72612 -75.7143,-391.42856 -10.7435,-107.70245 -3.1098,-166.35584 37.1429,-212.857148 z"
       id="path3002-4"
       inkscape:connector-curvature="0"
       sodipodi:nodetypes="zzczzzzzzz" />
    <path
       style="fill:#b3b3b3;stroke:#000000;stroke-width:6.25;stroke-linecap:butt;stroke-linejoin:miter;stroke-miterlimit:4;stroke-opacity:1;stroke-dasharray:none"
       d="m 2190.5665,-169.32455 -2.8572,200 142.8572,45.71429 154.2857,-17.14286 0,-231.42857 z"
       id="path3018-4"
       inkscape:connector-curvature="0"
       sodipodi:nodetypes="cccccc" />
    <path
       style="fill:#a10038;fill-opacity:1;stroke:#000000;stroke-width:6.25;stroke-linecap:butt;stroke-linejoin:miter;stroke-miterlimit:4;stroke-opacity:1;stroke-dasharray:none"
       d="m 1889.3893,-129.92036 c 21.1393,27.51999 34.2608,28.88586 42.4264,59.39697 8.1656,30.511105 -18.6969,104.2016 -28.2843,149.90664 -9.5874,45.70504 -23.2817,76.99625 -33.9411,121.62236 -10.6594,44.62611 -12.4922,68.3332 -16.9706,110.30866 -4.4784,41.97546 -1.8668,106.50944 -2.8284,138.59293 -0.9616,32.08349 5.1182,42.81438 14.1421,73.53911 9.0239,30.72473 34.4707,63.59903 56.5686,98.99495 22.0979,35.39592 38.1952,56.15364 56.5685,93.33809 18.3733,37.18445 48.236,80.0192 50.9117,130.10765 2.6757,50.08845 -26.6489,117.69462 -42.4264,155.5635 -15.7775,37.8689 -29.3512,48.8742 -26.8701,86.267 35.0081,9.1086 8.2417,7.6458 49.4975,15.5563 41.2558,7.9105 130.8753,-9.0192 181.0194,-5.6568 50.1441,3.3624 77.716,10.92 118.7939,19.799 41.0779,8.879 76.3836,24.4557 113.1371,18.3848 36.7535,-6.0709 57.1893,-18.0784 90.5096,-35.3554 33.3203,-17.277 84.7913,-34.4955 124.4508,-48.0832 39.6595,-13.5877 76.6871,-16.4574 96.1665,-35.3554 19.4794,-18.89798 28.9796,-23.06298 31.1128,-41.01218 -10.5948,-20.7777 -54.4442,-53.4276 -66.4681,-91.92385 -12.0239,-38.49628 1.8979,-83.81839 9.8995,-123.03658 8.0016,-39.21819 13.5223,-61.11182 31.1127,-101.82338 17.5904,-40.71156 57.7256,-95.01627 79.196,-138.59293 21.4704,-43.57666 29.8251,-75.61329 42.4264,-125.86501 12.6013,-50.25172 21.9119,-116.88494 16.9705,-178.19091 -4.9414,-61.30597 -14.9918,-120.07316 -39.5979,-179.60512 -24.6061,-59.531962 -59.9822,-109.177617 -100.4092,-159.80613 -30.5276,20.08216 -44.7336,28.811512 -63.6396,43.840619 -18.906,15.029107 -20.2882,28.505592 -48.0833,36.769553 -27.7951,8.263961 -79.8988,2.448555 -111.7229,4.24264 -31.8241,1.794085 -36.79,7.957883 -59.3969,21.213204 -22.6069,13.255323 -47.8337,34.051934 -77.7818,31.112694 -29.9481,-2.93924 -49.931,-24.013294 -76.3675,-39.597976 -26.4365,-15.584682 -58.9515,-30.116797 -82.0244,-42.426407 -77.0236,-33.615087 -56.9513,-11.283163 -93.3381,0 -20.2695,5.382847 -51.3672,1.386843 -77.7817,-4.24264 -26.4145,-5.629483 -54.1741,-21.642992 -80.6102,-29.698487 -26.4361,-8.05549 -50.8377,-23.27734 -76.3675,-28.28427 z"
       id="path3005"
       inkscape:connector-curvature="0"
       sodipodi:nodetypes="czzzzzzzzzzczzzzzzzczzzzzzzczzzzzzcczzc" />
    <path
       style="fill:#ffffff;stroke:none"
       d="m 2166.2851,534.5388 198,-130 110,-3 10,242 0,142 -3,74 -70,8 -68,-3 0,-109 0,-152 -5,-49 -55,29 -40,21 -73,-65 z"
       id="path3820"
       inkscape:connector-curvature="0" />
    <path
       style="fill:none;stroke:#000000;stroke-width:5;stroke-linecap:butt;stroke-linejoin:miter;stroke-miterlimit:4;stroke-opacity:1;stroke-dasharray:none"
       d="m 2363.2851,15.5388 c 2,4 11.155,30.00143 14,52 2.845,21.99857 3,80 3,80"
       id="path3822"
       inkscape:connector-curvature="0"
       sodipodi:nodetypes="czc" />
    <path
       style="fill:none;stroke:#000000;stroke-width:3.75;stroke-linecap:butt;stroke-linejoin:miter;stroke-miterlimit:4;stroke-opacity:1;stroke-dasharray:none"
       d="m 2359.2851,946.53882 c 0,0 18.9018,1.3681 28,0 9.0982,-1.3681 19.0159,-4.8092 26,-8 6.9841,-3.1908 16,-10 16,-10"
       id="path3832"
       inkscape:connector-curvature="0"
       sodipodi:nodetypes="czzc" />
    <rect
       style="fill:none;stroke:none"
       id="rect4081"
       width="39.59798"
       height="57.982758"
       x="-257.38687"
       y="-730.96112" />
    <rect
       style="fill:#ffffff;fill-opacity:1;stroke:none"
       id="rect4085"
       width="1117.2281"
       height="115.96574"
       x="-248.9016"
       y="-730.96118" />
    <path
       style="fill:#ffffff;stroke:#000000;stroke-width:6.25;stroke-linecap:butt;stroke-linejoin:miter;stroke-miterlimit:4;stroke-opacity:1;stroke-dasharray:none"
       d="m 2910.1714,-712.32787 c 17.8108,162.33794 8.1123,330.95888 -80,465.71428 -59.1674,24.04391 -92.6676,22.46873 -140,40 -47.3325,17.53127 -103.8973,51.18977 -142.8572,65.71429 -38.9598,14.52452 -33.7516,17.91754 -88.5714,25.71429 -54.8198,7.79674 -175.4437,8.09828 -240,0 -64.5563,-8.09829 -94.8196,-18.3935 -145.7143,-37.14286 -50.8947,-18.74936 -98.6498,-42.08702 -142.8571,-60 -44.2074,-17.91299 -67.3779,-23.96992 -120,-51.42857 -58.3365,-101.74436 -22.8572,-448.57143 -22.8572,-448.57143 z"
       id="path3016-1"
       inkscape:connector-curvature="0"
       sodipodi:nodetypes="cczzzzzzcc" />
    <rect
       style="fill:none;stroke:none"
       id="rect4081-7"
       width="39.59798"
       height="57.982758"
       x="-2908.1299"
       y="-779.93689"
       transform="scale(-1,1)" />
    <rect
       style="fill:#ffffff;fill-opacity:1;stroke:none"
       id="rect4085-1"
       width="1117.2281"
       height="115.96574"
       x="-2907.6445"
       y="-749.93695"
       transform="scale(-1,1)" />
    <rect
       style="fill:none;stroke:#ffffff;stroke-width:7.7;stroke-linejoin:round;stroke-miterlimit:4;stroke-opacity:1;stroke-dasharray:7.7,15.4;stroke-dashoffset:0"
       id="rect3089"
       width="602.36218"
       height="212.59842"
       x="2069.063"
       y="45.523315" />
    <text
       xml:space="preserve"
       style="font-size:40px;font-style:normal;font-variant:normal;font-weight:normal;font-stretch:normal;line-height:125%;letter-spacing:0px;word-spacing:0px;fill:#000000;fill-opacity:1;stroke:none;font-family:Smudger LET;-inkscape-font-specification:Smudger LET"
       x="2075.063"
       y="193.52332"
       id="text3035"
       sodipodi:linespacing="125%"><tspan
         sodipodi:role="line"
         id="tspan3037"
         x="2075.063"
         y="193.52332"
         style="font-size:170px;font-style:normal;font-variant:normal;font-weight:normal;font-stretch:normal;fill:#ffffff;font-family:Smudger LET;-inkscape-font-specification:Smudger LET">Invisibles!</tspan></text>
    <rect
       style="fill:#ffffff;fill-opacity:1;stroke:#ffffff;stroke-width:61.38263702;stroke-linejoin:round;stroke-miterlimit:4;stroke-opacity:1;stroke-dasharray:none;stroke-dashoffset:0"
       id="rect3807"
       width="138.61737"
       height="138.61737"
       x="-72.495537"
       y="12.46464" />
    <text
       xml:space="preserve"
       style="font-size:40px;font-style:normal;font-weight:normal;line-height:125%;letter-spacing:0px;word-spacing:0px;fill:#000000;fill-opacity:1;stroke:none;font-family:Sans"
       x="-74.936951"
       y="129.52332"
       id="text3813"
       sodipodi:linespacing="125%"><tspan
         sodipodi:role="line"
         id="tspan3815"
         x="-74.936951"
         y="129.52332"
         style="font-size:180px;font-style:normal;font-variant:normal;font-weight:normal;font-stretch:normal;font-family:Smudger LET;-inkscape-font-specification:Smudger LET">IU</tspan></text>
  </g>
</svg>
